# File created by Blade
# Date/Time:  Mon Sep 22 15:39:46 2014
# Frame Rate: 120.000 fps
#------------------------------------------------------
:FULLY-SPECIFIED
:DEGREES
1533
root 1.860515 37.096164 2.565684 -1.050970 -6.583626 1.375501
RightUpLeg 9.005476 -4.013925 -2.924749
RightLeg -5.676283 -0.000000 0.000000
RightFoot -11.466419 -13.106261 16.215226
RightToeBase 15.857303 -0.000000 -0.000000
LeftUpLeg 8.255017 4.581789 2.456830
LeftLeg -2.409534 -0.000000 0.000000
LeftFoot -10.204994 14.520053 -18.579731
LeftToeBase 9.367500 -0.000000 -0.000000
Spine -0.711880 5.598627 -5.904663
RightShoulder 3.187759 -0.448889 -31.316267
RightArm 54.227111 46.457210 77.541413
RightForeArm 101.817229 -0.000000 3.131051
RightHand -6.135123 -0.000000 -23.709895
RightHandThumb1 -24.326973 -0.000000 -32.862282
LeftShoulder -8.814596 34.655478 -1.668395
LeftArm 41.690266 10.111206 -65.236406
LeftForeArm 20.799848 -0.000000 22.277707
LeftHand -15.433130 -0.000000 -5.732126
LeftHandThumb1 -26.253704 0.000000 33.147579
Head 3.818403 -29.443828 -2.716220
1534
root 1.856217 37.089797 2.559247 -1.171202 -6.581251 1.342217
RightUpLeg 9.129976 -3.982313 -2.892624
RightLeg -5.691686 -0.000000 0.000000
RightFoot -11.491608 -13.111044 16.198059
RightToeBase 15.869482 -0.000000 -0.000000
LeftUpLeg 8.386833 4.570158 2.505415
LeftLeg -2.437871 -0.000000 0.000000
LeftFoot -10.243996 14.528718 -18.556563
LeftToeBase 9.404632 -0.000000 -0.000000
Spine -0.531244 5.553966 -5.879398
RightShoulder 3.432193 -0.823840 -31.042759
RightArm 54.537639 46.196984 78.100495
RightForeArm 102.253036 -0.000000 2.913269
RightHand -5.949992 -0.000000 -23.573751
RightHandThumb1 -24.326973 -0.000000 -32.862282
LeftShoulder -8.839082 34.708043 -1.576855
LeftArm 41.660955 10.204044 -65.385476
LeftForeArm 20.506844 -0.000000 22.294735
LeftHand -15.403347 -0.000000 -5.499706
LeftHandThumb1 -26.253704 0.000000 33.147579
Head 3.635680 -29.157789 -2.753575
1535
root 1.852958 37.084702 2.552962 -1.296080 -6.595664 1.308438
RightUpLeg 9.248424 -3.941852 -2.861398
RightLeg -5.692054 -0.000000 0.000000
RightFoot -11.398937 -13.166804 16.031447
RightToeBase 15.610473 -0.000000 -0.000000
LeftUpLeg 8.530279 4.570509 2.554346
LeftLeg -2.477660 -0.000000 0.000000
LeftFoot -10.270835 14.537761 -18.517912
LeftToeBase 9.394032 -0.000000 -0.000000
Spine -0.345427 5.554615 -5.843699
RightShoulder 3.615739 -0.997093 -30.826937
RightArm 54.810345 46.029328 78.788997
RightForeArm 102.457684 0.000000 2.804533
RightHand -6.339113 -0.000000 -23.501389
RightHandThumb1 -24.326973 -0.000000 -32.862282
LeftShoulder -8.838000 34.796931 -1.468255
LeftArm 41.707812 10.368655 -65.434462
LeftForeArm 20.067135 -0.000000 22.310841
LeftHand -15.499220 -0.000000 -5.478481
LeftHandThumb1 -26.253704 0.000000 33.147579
Head 3.500507 -28.902793 -2.773842
1536
root 1.851407 37.082369 2.551803 -1.428133 -6.650822 1.276825
RightUpLeg 9.375238 -3.887585 -2.839125
RightLeg -5.690880 -0.000000 0.000000
RightFoot -11.486092 -13.087235 16.174272
RightToeBase 15.838910 -0.000000 -0.000000
LeftUpLeg 8.703489 4.633044 2.603757
LeftLeg -2.533584 -0.000000 0.000000
LeftFoot -10.270482 14.530527 -18.489809
LeftToeBase 9.426596 -0.000000 -0.000000
Spine -0.178130 5.629264 -5.800367
RightShoulder 3.790431 -1.075797 -30.604741
RightArm 54.902429 45.850162 79.243749
RightForeArm 102.336536 -0.000000 2.717166
RightHand -6.035067 -0.000000 -24.167724
RightHandThumb1 -24.326973 -0.000000 -32.862282
LeftShoulder -8.800085 34.920841 -1.328110
LeftArm 41.821075 10.577134 -65.452154
LeftForeArm 19.878780 -0.000000 22.190749
LeftHand -15.336041 -0.000000 -5.475393
LeftHandThumb1 -26.253704 0.000000 33.147579
Head 3.424178 -28.647998 -2.795327
1537
root 1.849820 37.080697 2.541700 -1.514592 -6.644493 1.245654
RightUpLeg 9.445669 -3.893370 -2.811383
RightLeg -5.682817 -0.000000 0.000000
RightFoot -11.484116 -13.062892 16.203147
RightToeBase 15.854567 -0.000000 -0.000000
LeftUpLeg 8.787198 4.572642 2.636502
LeftLeg -2.550224 -0.000000 0.000000
LeftFoot -10.301860 14.588066 -18.486544
LeftToeBase 9.440346 -0.000000 -0.000000
Spine -0.032375 5.662332 -5.749512
RightShoulder 3.915562 -1.119943 -30.442746
RightArm 54.917111 45.637681 79.578020
RightForeArm 102.271533 -0.000000 2.648530
RightHand -5.641071 -0.000000 -24.861245
RightHandThumb1 -24.326973 -0.000000 -32.862282
LeftShoulder -8.741441 34.958341 -1.188407
LeftArm 41.880549 10.886928 -65.357103
LeftForeArm 19.687550 -0.000000 22.122354
LeftHand -15.302634 -0.000000 -5.636017
LeftHandThumb1 -26.253704 0.000000 33.147579
Head 3.342781 -28.426621 -2.827106
1538
root 1.849685 37.080575 2.532745 -1.574307 -6.672390 1.236547
RightUpLeg 9.477647 -3.858647 -2.802959
RightLeg -5.662840 -0.000000 0.000000
RightFoot -11.473362 -13.073325 16.157758
RightToeBase 15.671580 -0.000000 -0.000000
LeftUpLeg 8.848492 4.594784 2.650208
LeftLeg -2.572440 -0.000000 0.000000
LeftFoot -10.289838 14.615421 -18.456548
LeftToeBase 9.493677 -0.000000 -0.000000
Spine 0.066659 5.739781 -5.723126
RightShoulder 4.012635 -1.086642 -30.309566
RightArm 54.815171 45.413275 79.838328
RightForeArm 102.459056 0.000000 2.662727
RightHand -5.337244 -0.000000 -25.717077
RightHandThumb1 -24.326973 -0.000000 -32.862282
LeftShoulder -8.699668 34.973300 -1.060807
LeftArm 41.949156 11.231290 -65.218736
LeftForeArm 19.570403 0.000000 22.029218
LeftHand -15.331790 0.000000 -5.833537
LeftHandThumb1 -26.253704 0.000000 33.147579
Head 3.312032 -28.223453 -2.839353
1539
root 1.849574 37.081462 2.522100 -1.587792 -6.686522 1.219533
RightUpLeg 9.466501 -3.833587 -2.781108
RightLeg -5.648318 -0.000000 0.000000
RightFoot -11.463455 -13.079137 16.157525
RightToeBase 15.825531 -0.000000 -0.000000
LeftUpLeg 8.853978 4.582432 2.666509
LeftLeg -2.583079 -0.000000 0.000000
LeftFoot -10.279478 14.645687 -18.462608
LeftToeBase 9.489224 -0.000000 -0.000000
Spine 0.110110 5.826805 -5.689437
RightShoulder 4.053339 -1.164082 -30.158191
RightArm 54.892631 45.219280 80.155172
RightForeArm 102.736333 -0.000000 2.717530
RightHand -5.055023 -0.000000 -26.541567
RightHandThumb1 -24.326973 -0.000000 -32.862282
LeftShoulder -8.628388 34.941801 -0.917944
LeftArm 41.970800 11.576452 -65.097064
LeftForeArm 19.600098 -0.000000 21.914132
LeftHand -15.066474 -0.000000 -6.128108
LeftHandThumb1 -26.253704 0.000000 33.147579
Head 3.312673 -28.097265 -2.839675
1540
root 1.851018 37.084177 2.510667 -1.576095 -6.686687 1.216955
RightUpLeg 9.426401 -3.818833 -2.773387
RightLeg -5.630033 -0.000000 0.000000
RightFoot -11.453211 -13.102013 16.166667
RightToeBase 15.875765 -0.000000 -0.000000
LeftUpLeg 8.821490 4.553179 2.660838
LeftLeg -2.579274 -0.000000 0.000000
LeftFoot -10.273563 14.685039 -18.474946
LeftToeBase 9.509593 -0.000000 -0.000000
Spine 0.125240 5.912684 -5.672130
RightShoulder 4.083459 -1.268545 -30.023250
RightArm 54.942716 45.038629 80.406869
RightForeArm 103.165439 -0.000000 2.829800
RightHand -4.603690 -0.000000 -26.818264
RightHandThumb1 -24.326973 -0.000000 -32.862282
LeftShoulder -8.584166 34.916161 -0.809044
LeftArm 42.025937 11.937680 -64.922826
LeftForeArm 19.711852 -0.000000 21.800409
LeftHand -15.046310 -0.000000 -6.463986
LeftHandThumb1 -26.253704 0.000000 33.147579
Head 3.324722 -27.962343 -2.849533
1541
root 1.853711 37.087121 2.497759 -1.517399 -6.669383 1.218813
RightUpLeg 9.342797 -3.834981 -2.769773
RightLeg -5.619855 -0.000000 0.000000
RightFoot -11.428587 -13.123974 16.137841
RightToeBase 15.837267 -0.000000 -0.000000
LeftUpLeg 8.731295 4.539177 2.647713
LeftLeg -2.567742 -0.000000 0.000000
LeftFoot -10.258829 14.697702 -18.493531
LeftToeBase 9.537355 -0.000000 -0.000000
Spine 0.075401 5.986078 -5.665567
RightShoulder 4.124799 -1.214569 -29.890574
RightArm 54.707604 44.874836 80.453740
RightForeArm 103.545756 -0.000000 3.069001
RightHand -3.986012 -0.000000 -26.949123
RightHandThumb1 -24.326973 -0.000000 -32.862282
LeftShoulder -8.592961 34.943333 -0.747475
LeftArm 42.139259 12.334293 -64.661616
LeftForeArm 19.865714 -0.000000 21.712930
LeftHand -14.950989 -0.000000 -6.733198
LeftHandThumb1 -26.253704 0.000000 33.147579
Head 3.377134 -27.922308 -2.854378
1542
root 1.856572 37.090499 2.484187 -1.443251 -6.642261 1.221753
RightUpLeg 9.237377 -3.878300 -2.768627
RightLeg -5.598473 -0.000000 0.000000
RightFoot -11.394724 -13.120802 16.138756
RightToeBase 15.816513 -0.000000 -0.000000
LeftUpLeg 8.617074 4.524469 2.634150
LeftLeg -2.542362 -0.000000 0.000000
LeftFoot -10.231731 14.703602 -18.472979
LeftToeBase 9.539703 -0.000000 -0.000000
Spine 0.003132 6.057264 -5.666437
RightShoulder 4.162971 -1.195661 -29.756970
RightArm 54.541310 44.801636 80.539294
RightForeArm 103.592784 -0.000000 3.313392
RightHand -3.727243 -0.000000 -26.578110
RightHandThumb1 -24.326973 -0.000000 -32.862282
LeftShoulder -8.574266 34.962403 -0.671966
LeftArm 42.211737 12.623826 -64.517079
LeftForeArm 20.172740 0.000000 21.622421
LeftHand -14.882399 -0.000000 -7.185915
LeftHandThumb1 -26.253704 0.000000 33.147579
Head 3.466888 -27.913967 -2.853769
1543
root 1.860007 37.093758 2.469739 -1.357194 -6.602180 1.225337
RightUpLeg 9.123406 -3.914048 -2.766000
RightLeg -5.577824 -0.000000 0.000000
RightFoot -11.385040 -13.120840 16.169976
RightToeBase 15.841759 -0.000000 -0.000000
LeftUpLeg 8.483441 4.494782 2.614436
LeftLeg -2.507218 -0.000000 0.000000
LeftFoot -10.244131 14.715191 -18.519576
LeftToeBase 9.626286 -0.000000 -0.000000
Spine -0.076763 6.122513 -5.667134
RightShoulder 4.210310 -1.155315 -29.624161
RightArm 54.235930 44.729549 80.408761
RightForeArm 103.627416 -0.000000 3.565348
RightHand -3.432909 -0.000000 -25.839062
RightHandThumb1 -24.326973 -0.000000 -32.862282
LeftShoulder -8.550601 34.964715 -0.616779
LeftArm 42.214518 12.829426 -64.426497
LeftForeArm 20.665514 -0.000000 21.612979
LeftHand -14.625606 -0.000000 -7.709770
LeftHandThumb1 -26.253704 0.000000 33.147579
Head 3.552480 -27.927481 -2.857028
1544
root 1.863816 37.097331 2.455650 -1.264213 -6.554043 1.243649
RightUpLeg 9.003657 -3.975852 -2.777346
RightLeg -5.564831 -0.000000 0.000000
RightFoot -11.354187 -13.151636 16.129829
RightToeBase 15.658519 -0.000000 -0.000000
LeftUpLeg 8.344799 4.468995 2.584693
LeftLeg -2.487990 -0.000000 0.000000
LeftFoot -10.189692 14.721396 -18.490104
LeftToeBase 9.587935 -0.000000 -0.000000
Spine -0.166382 6.175770 -5.684496
RightShoulder 4.254470 -1.160479 -29.495622
RightArm 53.906386 44.641862 80.146177
RightForeArm 103.573761 -0.000000 3.794617
RightHand -3.545039 -0.000000 -24.684787
RightHandThumb1 -24.326973 -0.000000 -32.862282
LeftShoulder -8.532500 34.966199 -0.589300
LeftArm 42.179797 13.034373 -64.322890
LeftForeArm 21.148565 -0.000000 21.634359
LeftHand -14.599174 -0.000000 -7.981587
LeftHandThumb1 -26.253704 0.000000 33.147579
Head 3.659578 -27.954298 -2.872884
1545
root 1.868135 37.100122 2.441511 -1.164811 -6.493757 1.256824
RightUpLeg 8.895883 -4.004870 -2.782568
RightLeg -5.580595 -0.000000 0.000000
RightFoot -11.327835 -13.195416 16.133427
RightToeBase 15.601778 -0.000000 -0.000000
LeftUpLeg 8.198856 4.443062 2.559874
LeftLeg -2.462239 -0.000000 0.000000
LeftFoot -10.159729 14.691426 -18.503477
LeftToeBase 9.643632 -0.000000 -0.000000
Spine -0.257381 6.216061 -5.697073
RightShoulder 4.298972 -1.113165 -29.381205
RightArm 53.443890 44.494588 79.641072
RightForeArm 103.583359 -0.000000 3.912475
RightHand -3.591582 -0.000000 -23.373286
RightHandThumb1 -24.326973 -0.000000 -32.862282
LeftShoulder -8.509362 34.957982 -0.560003
LeftArm 42.107459 13.111168 -64.348890
LeftForeArm 21.568304 -0.000000 21.652418
LeftHand -14.528905 0.000000 -8.390729
LeftHandThumb1 -26.253704 0.000000 33.147579
Head 3.755404 -27.995168 -2.867429
